<?xml version="1.0" encoding="UTF-8"?>
<svg width="17px" height="19px" viewBox="0 0 17 19" version="1.1" xmlns="http://www.w3.org/2000/svg" xmlns:xlink="http://www.w3.org/1999/xlink">
    <!-- Generator: Sketch 54.1 (76490) - https://sketchapp.com -->
    <title>台账管理</title>
    <desc>Created with Sketch.</desc>
    <g id="新官网2019" stroke="none" stroke-width="1" fill="none" fill-rule="evenodd">
        <g id="分析预测-风险指标维护-copy-3" transform="translate(-14.000000, -186.000000)" fill="#C1CADC">
            <g id="左侧导航" transform="translate(-1.000000, 60.000000)">
                <path d="M30,145 L18.2819426,145 C17.8361832,145 17.6745401,144.953587 17.5115771,144.866434 C17.3486142,144.77928 17.2207199,144.651386 17.1335664,144.488423 C17.0464128,144.32546 17,144.163817 17,143.718057 L17,141.832181 C16.9816591,141.832947 16.9631384,141.833333 16.9444444,141.833333 L16.0555556,141.833333 C15.8473866,141.833333 15.660713,141.785439 15.5043343,141.69845 C15.3479557,141.611461 15.2218722,141.485378 15.1348832,141.328999 C15.0478943,141.17262 15,140.985947 15,140.777778 C15,140.569609 15.0478943,140.382935 15.1348832,140.226557 C15.2218722,140.070178 15.3479557,139.944094 15.5043343,139.857105 C15.660713,139.770117 15.8473866,139.722222 16.0555556,139.722222 L16.9444444,139.722222 C16.9631384,139.722222 16.9816591,139.722608 17,139.723375 L17,136.554403 C16.9816591,136.555169 16.9631384,136.555556 16.9444444,136.555556 L16.0555556,136.555556 C15.8473866,136.555556 15.660713,136.507661 15.5043343,136.420672 C15.3479557,136.333683 15.2218722,136.2076 15.1348832,136.051221 C15.0478943,135.894843 15,135.708169 15,135.5 C15,135.291831 15.0478943,135.105157 15.1348832,134.948779 C15.2218722,134.7924 15.3479557,134.666317 15.5043343,134.579328 C15.660713,134.492339 15.8473866,134.444444 16.0555556,134.444444 L16.9444444,134.444444 C16.9631384,134.444444 16.9816591,134.444831 17,134.445597 L17,131.276625 C16.9816591,131.277392 16.9631384,131.277778 16.9444444,131.277778 L16.0555556,131.277778 C15.8473866,131.277778 15.660713,131.229883 15.5043343,131.142895 C15.3479557,131.055906 15.2218722,130.929822 15.1348832,130.773443 C15.0478943,130.617065 15,130.430391 15,130.222222 C15,130.014053 15.0478943,129.82738 15.1348832,129.671001 C15.2218722,129.514622 15.3479557,129.388539 15.5043343,129.30155 C15.660713,129.214561 15.8473866,129.166667 16.0555556,129.166667 L16.9444444,129.166667 C16.9631384,129.166667 16.9816591,129.167053 17,129.167819 L17,127.281943 C17,126.836183 17.0464128,126.67454 17.1335664,126.511577 C17.2207199,126.348614 17.3486142,126.22072 17.5115771,126.133566 C17.6745401,126.046413 17.8361832,126 18.2819426,126 L30,126 L30,145 Z M30.5,145 L30.5,126 L30.7180574,126 C31.1638168,126 31.3254599,126.046413 31.4884229,126.133566 C31.6513858,126.22072 31.7792801,126.348614 31.8664336,126.511577 C31.9535872,126.67454 32,126.836183 32,127.281943 L32,143.718057 C32,144.163817 31.9535872,144.32546 31.8664336,144.488423 C31.7792801,144.651386 31.6513858,144.77928 31.4884229,144.866434 C31.3254599,144.953587 31.1638168,145 30.7180574,145 L30.5,145 Z M23.4763357,133.916667 L23.4763357,137.073339 L20.587576,137.073339 C20.3114336,137.073339 20.087576,137.309633 20.087576,137.601116 C20.087576,137.8926 20.3114336,138.128894 20.587576,138.128894 L23.4763357,138.128894 L23.4763357,140.588882 C23.4763357,140.880365 23.7001933,141.116659 23.9763357,141.116659 C24.2524781,141.116659 24.4763357,140.880365 24.4763357,140.588882 L24.4763357,138.128894 L27.587576,138.128894 C27.8637183,138.128894 28.087576,137.8926 28.087576,137.601116 C28.087576,137.309633 27.8637183,137.073339 27.587576,137.073339 L24.4763357,137.073339 L24.4763357,133.916667 L28,133.916667 C28.2761424,133.916667 28.5,133.680373 28.5,133.388889 C28.5,133.097405 28.2761424,132.861111 28,132.861111 L24.7932685,132.861111 L27.1312714,130.393219 C27.3265335,130.187109 27.3265335,129.852939 27.1312714,129.646829 C26.9360092,129.440719 26.6194267,129.440719 26.4241646,129.646829 L23.9492909,132.259195 L21.4744171,129.646829 C21.279155,129.440719 20.9625725,129.440719 20.7673103,129.646829 C20.5720482,129.852939 20.5720482,130.187109 20.7673103,130.393219 L23.1053132,132.861111 L20,132.861111 C19.7238576,132.861111 19.5,133.097405 19.5,133.388889 C19.5,133.680373 19.7238576,133.916667 20,133.916667 L23.4763357,133.916667 Z" id="台账管理"></path>
            </g>
        </g>
    </g>
</svg>