<?xml version="1.0" encoding="UTF-8"?>
<svg width="18px" height="16px" viewBox="0 0 18 16" version="1.1" xmlns="http://www.w3.org/2000/svg" xmlns:xlink="http://www.w3.org/1999/xlink">
    <!-- Generator: Sketch 54.1 (76490) - https://sketchapp.com -->
    <title>计税规则</title>
    <desc>Created with Sketch.</desc>
    <g id="新官网2019" stroke="none" stroke-width="1" fill="none" fill-rule="evenodd">
        <g id="分析预测-风险指标维护-copy-3" transform="translate(-14.000000, -135.000000)" fill="#C1CADC">
            <g id="左侧导航" transform="translate(-1.000000, 60.000000)">
                <g id="计税规则" transform="translate(15.000000, 75.000000)">
                    <path d="M1.2819426,-5.17920154e-17 L16.7180574,5.17920154e-17 C17.1638168,-3.00926524e-17 17.3254599,0.0464128056 17.4884229,0.133566352 C17.6513858,0.220719898 17.7792801,0.348614185 17.8664336,0.511577148 C17.9535872,0.674540111 18,0.83618323 18,1.2819426 L18,14.7180574 C18,15.1638168 17.9535872,15.3254599 17.8664336,15.4884229 C17.7792801,15.6513858 17.6513858,15.7792801 17.4884229,15.8664336 C17.3254599,15.9535872 17.1638168,16 16.7180574,16 L1.2819426,16 C0.83618323,16 0.674540111,15.9535872 0.511577148,15.8664336 C0.348614185,15.7792801 0.220719898,15.6513858 0.133566352,15.4884229 C0.0464128056,15.3254599 2.00617683e-17,15.1638168 -3.45280103e-17,14.7180574 L3.45280103e-17,1.2819426 C-2.00617683e-17,0.83618323 0.0464128056,0.674540111 0.133566352,0.511577148 C0.220719898,0.348614185 0.348614185,0.220719898 0.511577148,0.133566352 C0.674540111,0.0464128056 0.83618323,3.00926524e-17 1.2819426,-5.17920154e-17 Z M5.04214367,12.8 C5.277307,13.6429503 6.050822,14.2613803 6.96877906,14.2613803 C7.88673612,14.2613803 8.66025112,13.6429503 8.89541446,12.8 L15.5625,12.8 C15.8041246,12.8 16,12.5612185 16,12.2666667 C16,11.9721148 15.8041246,11.7333333 15.5625,11.7333333 L8.89833255,11.7333333 C8.66670937,10.8849864 7.89056973,10.2613803 6.96877906,10.2613803 C6.0469884,10.2613803 5.27084876,10.8849864 5.03922557,11.7333333 L2.4375,11.7333333 C2.19587542,11.7333333 2,11.9721148 2,12.2666667 C2,12.5612185 2.19587542,12.8 2.4375,12.8 L5.04214367,12.8 Z M11.6073744,8.53333333 C11.8177828,9.10747843 12.3691498,9.51718427 13.0162087,9.51718427 C13.6632676,9.51718427 14.2146346,9.10747843 14.425043,8.53333333 L15.4796514,8.53333333 C15.7198,8.53333333 15.9144789,8.29455187 15.9144789,8 C15.9144789,7.70544813 15.7198,7.46666667 15.4796514,7.46666667 L14.4119643,7.46666667 C14.1924642,6.91060957 13.6502812,6.51718427 13.0162087,6.51718427 C12.3821363,6.51718427 11.8399532,6.91060957 11.6204531,7.46666667 L2.43482746,7.46666667 C2.19467889,7.46666667 2,7.70544813 2,8 C2,8.29455187 2.19467889,8.53333333 2.43482746,8.53333333 L11.6073744,8.53333333 Z M3.63678584,4.26666667 C3.85507122,4.93528659 4.48430596,5.4184307 5.22650511,5.4184307 C5.96870425,5.4184307 6.597939,4.93528659 6.81622438,4.26666667 L15.5625,4.26666667 C15.8041246,4.26666667 16,4.0278852 16,3.73333333 C16,3.43878147 15.8041246,3.2 15.5625,3.2 L6.80604409,3.2 C6.57888869,2.54707768 5.9574843,2.0784307 5.22650511,2.0784307 C4.49552591,2.0784307 3.87412153,2.54707768 3.64696612,3.2 L2.4375,3.2 C2.19587542,3.2 2,3.43878147 2,3.73333333 C2,4.0278852 2.19587542,4.26666667 2.4375,4.26666667 L3.63678584,4.26666667 Z" id="形状结合"></path>
                </g>
            </g>
        </g>
    </g>
</svg>