<?xml version="1.0" encoding="UTF-8"?>
<svg width="18px" height="19px" viewBox="0 0 18 19" version="1.1" xmlns="http://www.w3.org/2000/svg" xmlns:xlink="http://www.w3.org/1999/xlink">
    <!-- Generator: Sketch 54.1 (76490) - https://sketchapp.com -->
    <title>销项发票管理</title>
    <desc>Created with Sketch.</desc>
    <g id="新官网2019" stroke="none" stroke-width="1" fill="none" fill-rule="evenodd">
        <g id="分析预测-风险指标维护-copy-3" transform="translate(-16.000000, -820.000000)" fill="#C1CADC">
            <g id="左侧导航" transform="translate(-1.000000, 60.000000)">
                <g id="销项发票管理" transform="translate(16.999093, 760.000000)">
                    <path d="M14,10.03548 C11.5253815,10.0479588 9.523176,12.0578701 9.523176,14.5354216 C9.523176,16.7564524 11.1322367,18.6016669 13.2482399,18.9689469 C13.1688652,18.9892217 13.0856913,19 13,19 L1,19 C0.44771525,19 6.76353751e-17,18.5522847 0,18 L0,1 C-6.76353751e-17,0.44771525 0.44771525,1.01453063e-16 1,0 L13,0 C13.5522847,-1.01453063e-16 14,0.44771525 14,1 L14,10.03548 Z M3.5,11 C3.22385763,11 3,11.2238576 3,11.5 C3,11.7761424 3.22385763,12 3.5,12 L6.5,12 C6.77614237,12 7,11.7761424 7,11.5 C7,11.2238576 6.77614237,11 6.5,11 L3.5,11 Z M3.5,7 C3.22385763,7 3,7.22385763 3,7.5 C3,7.77614237 3.22385763,8 3.5,8 L10.5,8 C10.7761424,8 11,7.77614237 11,7.5 C11,7.22385763 10.7761424,7 10.5,7 L3.5,7 Z M3.5,3 C3.22385763,3 3,3.22385763 3,3.5 C3,3.77614237 3.22385763,4 3.5,4 L10.5,4 C10.7761424,4 11,3.77614237 11,3.5 C11,3.22385763 10.7761424,3 10.5,3 L3.5,3 Z M14.0239485,18.0420873 C12.0909519,18.0420873 10.5239485,16.475084 10.5239485,14.5420873 C10.5239485,12.6090907 12.0909519,11.0420873 14.0239485,11.0420873 C15.9569451,11.0420873 17.5239485,12.6090907 17.5239485,14.5420873 C17.5239485,16.475084 15.9569451,18.0420873 14.0239485,18.0420873 Z M13.6066715,13.8485951 L12.1217847,13.8485951 C12.0113278,13.8485951 11.9217847,13.9381382 11.9217847,14.0485951 L11.9217847,14.909048 C11.9217847,15.0195049 12.0113278,15.109048 12.1217847,15.109048 L13.6066715,15.109048 L13.6066715,16.2726131 C13.6066715,16.38307 13.6962146,16.4726131 13.8066715,16.4726131 C13.8510944,16.4726131 13.8942531,16.4578234 13.9293392,16.4305771 L16.2392738,14.6367873 C16.3265149,14.5690399 16.3423177,14.4433967 16.2745702,14.3561556 C16.2643249,14.3429623 16.2524671,14.3311045 16.2392738,14.3208592 L13.9293392,12.5270694 C13.8420981,12.4593219 13.7164549,12.4751247 13.6487075,12.5623658 C13.6214612,12.5974519 13.6066715,12.6406106 13.6066715,12.6850335 L13.6066715,13.8485951 Z" id="形状结合"></path>
                </g>
            </g>
        </g>
    </g>
</svg>